<svg width="880" height="161" viewBox="0 0 880 161" fill="none" xmlns="http://www.w3.org/2000/svg">
<path d="M326.006 68.4062V85.8086C325.994 88.2227 325.232 90.1973 323.721 91.7324C322.221 93.2676 320.182 94.1289 317.604 94.3164L316.707 94.3516C313.906 94.3516 311.674 93.5957 310.01 92.084C308.346 90.5723 307.502 88.4922 307.479 85.8438V68.4062H310.818V85.7383C310.818 87.5898 311.328 89.0312 312.348 90.0625C313.367 91.082 314.82 91.5918 316.707 91.5918C318.617 91.5918 320.076 91.082 321.084 90.0625C322.104 89.043 322.613 87.6074 322.613 85.7559V68.4062H326.006ZM339.453 94H336.078V68.4062H339.453V94ZM369.037 90.6426C368.17 91.8848 366.957 92.8164 365.398 93.4375C363.852 94.0469 362.047 94.3516 359.984 94.3516C357.898 94.3516 356.047 93.8652 354.43 92.8926C352.812 91.9082 351.559 90.5137 350.668 88.709C349.789 86.9043 349.338 84.8125 349.314 82.4336V80.2012C349.314 76.3457 350.211 73.3574 352.004 71.2363C353.809 69.1152 356.34 68.0547 359.598 68.0547C362.27 68.0547 364.42 68.7402 366.049 70.1113C367.678 71.4707 368.674 73.4043 369.037 75.9121H365.662C365.029 72.5254 363.014 70.832 359.615 70.832C357.354 70.832 355.637 71.6289 354.465 73.2227C353.305 74.8047 352.719 77.1016 352.707 80.1133V82.2051C352.707 85.0762 353.363 87.3613 354.676 89.0605C355.988 90.748 357.764 91.5918 360.002 91.5918C361.268 91.5918 362.375 91.4512 363.324 91.1699C364.273 90.8887 365.059 90.4141 365.68 89.7461V83.998H359.756V81.2559H369.037V90.6426ZM388.566 83.6465H382.555V94H379.162V68.4062H387.635C390.518 68.4062 392.732 69.0625 394.279 70.375C395.838 71.6875 396.617 73.5977 396.617 76.1055C396.617 77.6992 396.184 79.0879 395.316 80.2715C394.461 81.4551 393.266 82.3398 391.73 82.9258L397.742 93.7891V94H394.121L388.566 83.6465ZM382.555 80.8867H387.74C389.416 80.8867 390.746 80.4531 391.73 79.5859C392.727 78.7188 393.225 77.5586 393.225 76.1055C393.225 74.5234 392.75 73.3105 391.801 72.4668C390.863 71.623 389.504 71.1953 387.723 71.1836H382.555V80.8867ZM419.996 87.3203H409.273L406.865 94H403.385L413.158 68.4062H416.111L425.902 94H422.439L419.996 87.3203ZM410.293 84.543H418.994L414.635 72.5723L410.293 84.543ZM433.848 94V68.4062H441.072C443.299 68.4062 445.268 68.8984 446.979 69.8828C448.689 70.8672 450.008 72.2676 450.934 74.084C451.871 75.9004 452.346 77.9863 452.357 80.3418V81.9766C452.357 84.3906 451.889 86.5059 450.951 88.3223C450.025 90.1387 448.695 91.5332 446.961 92.5059C445.238 93.4785 443.229 93.9766 440.932 94H433.848ZM437.223 71.1836V91.2402H440.773C443.375 91.2402 445.396 90.4316 446.838 88.8145C448.291 87.1973 449.018 84.8945 449.018 81.9062V80.4121C449.018 77.5059 448.332 75.25 446.961 73.6445C445.602 72.0273 443.668 71.207 441.16 71.1836H437.223ZM465.594 94H462.219V68.4062H465.594V94ZM490.748 82.1699H479.656V91.2402H492.541V94H476.281V68.4062H492.365V71.1836H479.656V79.4102H490.748V82.1699ZM520.912 94H517.52L504.635 74.2773V94H501.242V68.4062H504.635L517.555 88.2168V68.4062H520.912V94ZM548.562 71.1836H540.336V94H536.979V71.1836H528.77V68.4062H548.562V71.1836ZM564.119 82.5918C561.225 81.7598 559.115 80.7402 557.791 79.5332C556.479 78.3145 555.822 76.8145 555.822 75.0332C555.822 73.0176 556.625 71.3535 558.23 70.041C559.848 68.7168 561.945 68.0547 564.523 68.0547C566.281 68.0547 567.846 68.3945 569.217 69.0742C570.6 69.7539 571.666 70.6914 572.416 71.8867C573.178 73.082 573.559 74.3887 573.559 75.8066H570.166C570.166 74.2598 569.674 73.0469 568.689 72.168C567.705 71.2773 566.316 70.832 564.523 70.832C562.859 70.832 561.559 71.2012 560.621 71.9395C559.695 72.666 559.232 73.6797 559.232 74.9805C559.232 76.0234 559.672 76.9082 560.551 77.6348C561.441 78.3496 562.947 79.0059 565.068 79.6035C567.201 80.2012 568.865 80.8633 570.061 81.5898C571.268 82.3047 572.158 83.1426 572.732 84.1035C573.318 85.0645 573.611 86.1953 573.611 87.4961C573.611 89.5703 572.803 91.2344 571.186 92.4883C569.568 93.7305 567.406 94.3516 564.699 94.3516C562.941 94.3516 561.301 94.0176 559.777 93.3496C558.254 92.6699 557.076 91.7441 556.244 90.5723C555.424 89.4004 555.014 88.0703 555.014 86.582H558.406C558.406 88.1289 558.975 89.3535 560.111 90.2559C561.26 91.1465 562.789 91.5918 564.699 91.5918C566.48 91.5918 567.846 91.2285 568.795 90.502C569.744 89.7754 570.219 88.7852 570.219 87.5312C570.219 86.2773 569.779 85.3105 568.9 84.6309C568.021 83.9395 566.428 83.2598 564.119 82.5918Z" fill="#1D1D1D"/>
</svg>
